# xmcd
#
# Track frame offsets:
#	150
#	24492
#	43202
#	53797
#	71793
#	88608
#	104922
#
# Disc length: 1795 seconds
#
# Revision: 0
# Processed by: cddbd v1.5.2PL0 Copyright (c) Steve Scherf et al.
# Submitted via: audiograbber 1.83.01
#
DISCID=63070107
DTITLE=Ormondroyd - Bing-Bong-Bing
DYEAR=2003
DGENRE=Indie
TTITLE0=El Potential
TTITLE1=Perfect Designs
TTITLE2=Scarlet
TTITLE3=Still
TTITLE4=Walking On Water
TTITLE5=Fantasize
TTITLE6=The Storm
EXTD=
EXTT0=
EXTT1=
EXTT2=
EXTT3=
EXTT4=
EXTT5=
EXTT6=
PLAYORDER=
